<svg xmlns="http://www.w3.org/2000/svg" xmlns:xlink="http://www.w3.org/1999/xlink" width="100" height="100" viewBox="0 0 100 100">
  <g fill="none" class="logo-entity focused" id="symbol" ><g class="logo-entity-inner"><g class="[object Object]" data-noun-id="28868" data-attribution="" transform="scale(1.269115844389232)"><svg xmlns="http://www.w3.org/2000/svg" xmlns:xlink="http://www.w3.org/1999/xlink" version="1.1" id="Layer_1" x="0px" y="0px" width="100px" height="100px" viewBox="0 0 100 100" enable-background="new 0 0 100 100" xml:space="preserve"><path d="M79.236,48.382l0.658-0.06c-0.788-8.699-8.871-15.436-18.464-15.436c-0.087,0-0.174,0-0.262,0.001  c-4.615,0.071-8.927,1.653-12.273,4.446c-2.482-1.072-5.251-1.667-8.155-1.635c-3.933,0.053-7.573,1.193-10.561,3.13L23.373,10.71  l-2.916,0.706l7.131,29.46c-1.294,1.228-2.397,2.632-3.239,4.194L13.462,21.673l-2.72,1.266l11.839,25.443H10.603v1.5  c0,21.729,17.671,39.407,39.393,39.407c21.727,0,39.402-17.678,39.402-39.407v-1.5H79.236z M61.212,35.888  c0.074-0.001,0.148-0.001,0.224-0.001c7.967,0,14.678,5.438,15.44,12.495H58.938c-1.092-3.894-3.678-7.224-7.151-9.494  C54.453,37.003,57.726,35.942,61.212,35.888z M40.779,38.7c6.995-0.095,13.013,3.982,15.02,9.683H26.172  C28.171,42.781,34.059,38.791,40.779,38.7z M49.995,86.29c-19.565,0-35.573-15.524-36.362-34.907h42.836  c0.001,0.004,0.002,0.008,0.002,0.012l0.13-0.012h29.767C85.578,70.765,69.564,86.29,49.995,86.29z" transform="translate(-10.602999687194824,-10.710000038146973)" fill="#000000"></path></svg></g></g></g>
</svg>
